<?xml version="1.0" encoding="iso-8859-1"?>
<!-- Generator: Adobe Illustrator 16.0.0, SVG Export Plug-In . SVG Version: 6.00 Build 0)  -->
<!DOCTYPE svg PUBLIC "-//W3C//DTD SVG 1.1//EN" "http://www.w3.org/Graphics/SVG/1.1/DTD/svg11.dtd">
<svg version="1.1" id="&#x421;&#x43B;&#x43E;&#x439;_1"
	 xmlns="http://www.w3.org/2000/svg" xmlns:xlink="http://www.w3.org/1999/xlink" x="0px" y="0px" width="84.314px"
	 height="84.314px" viewBox="0 0 84.314 84.314" style="enable-background:new 0 0 84.314 84.314;" xml:space="preserve">
<rect x="28.888" y="17.028" style="fill:#1DB596;" width="6.757" height="26.5"/>
<rect x="19.351" y="27.229" style="fill:#1DB596;" width="25.83" height="6.758"/>
<rect x="56.56" y="46.302" transform="matrix(0.7071 -0.7071 0.7071 0.7071 -27.9222 63.4947)" style="fill:#00C19A;" width="12.26" height="38.305"/>
<g>
	<g>
		<path style="fill:#00C19A;" d="M32.013,0.918c-16.085,0-29.125,13.04-29.125,29.125c0,16.085,13.04,29.125,29.125,29.125
			c16.082,0,29.123-13.04,29.123-29.125C61.136,13.958,48.095,0.918,32.013,0.918z M32.013,49.225
			c-10.594,0-19.182-8.588-19.182-19.182s8.588-19.182,19.182-19.182c10.592,0,19.18,8.588,19.18,19.182
			S42.605,49.225,32.013,49.225z"/>
	</g>
</g>
</svg>
