<?xml version="1.0" standalone="no"?>
<!DOCTYPE svg PUBLIC "-//W3C//DTD SVG 20010904//EN"
 "http://www.w3.org/TR/2001/REC-SVG-20010904/DTD/svg10.dtd">
<svg version="1.0" xmlns="http://www.w3.org/2000/svg"
 width="290.000000pt" height="290.000000pt" viewBox="0 0 290.000000 290.000000"
 preserveAspectRatio="xMidYMid meet">
<metadata>
Created by potrace 1.11, written by Peter Selinger 2001-2013
</metadata>
<g transform="translate(0.000000,290.000000) scale(0.100000,-0.100000)"
fill="#000000" stroke="none">
<path d="M165 2887 c-37 -12 -83 -44 -112 -77 -54 -60 -52 -14 -50 -1375 2
-1177 3 -1262 19 -1295 27 -52 59 -85 108 -112 l45 -23 1260 -2 c1070 -1 1267
1 1305 13 51 16 109 65 137 115 17 33 18 89 19 1304 2 1422 7 1316 -71 1396
-69 71 5 68 -1385 67 -798 -1 -1256 -4 -1275 -11z"/>
</g>
</svg>
